<svg width="20" height="20" viewBox="0 0 20 20" fill="none" xmlns="http://www.w3.org/2000/svg">
    <path fill-rule="evenodd" clip-rule="evenodd" d="M11.4499 2.8802H14.5199C18.2099 2.8802 20.0099 4.8502 19.9999 8.8902V13.7602C19.9999 17.6202 17.6199 20.0002 13.7499 20.0002H6.23988C2.38988 20.0002 -0.00012207 17.6202 -0.00012207 13.7502V6.2402C-0.00012207 2.1002 1.83988 0.000201178 5.46988 0.000201178H7.04988C7.98088 -0.00979882 8.84988 0.420201 9.41988 1.1502L10.2999 2.3202C10.5799 2.6702 10.9999 2.8802 11.4499 2.8802ZM5.36988 13.2902H14.6299C15.0399 13.2902 15.3699 12.9502 15.3699 12.5402C15.3699 12.1202 15.0399 11.7902 14.6299 11.7902H5.36988C4.94988 11.7902 4.61988 12.1202 4.61988 12.5402C4.61988 12.9502 4.94988 13.2902 5.36988 13.2902Z" fill="#191D2B"/>
</svg>
